<!-- Generator: Adobe Illustrator 25.2.2, SVG Export Plug-In . SVG Version: 6.00 Build 0)  -->
<svg version="1.1" id="Layer_1" xmlns:cc="http://creativecommons.org/ns#" xmlns:dc="http://purl.org/dc/elements/1.1/" xmlns:rdf="http://www.w3.org/1999/02/22-rdf-syntax-ns#" xmlns="http://www.w3.org/2000/svg" xmlns:xlink="http://www.w3.org/1999/xlink" x="0px" y="0px" viewBox="0 0 364.9 433.7" style="enable-background:new 0 0 364.9 433.7;" xml:space="preserve" width="364.9" height="433.7">
<path d="M180.8,432.7l-1.2-1l-9.3-28.8l-4.6-12l-9.8-24L138,331.7l-8.7-14.4l-15.1-22.4l-13-16.8l-19.2-19.2l-13.6-10.6l-11.2-7.2  l-9.1-4.9l-13.3-5.4l-12.2-3.8l20.2-13.5l9.6-7.6l9.7-10.2l6-9l4.7-11.5l1.9-10.6l-0.4-8.5l-0.4-8.5l-4.2-17.6l-5.4-16.4l-3.4-8.6  l-3.4-8.6L45.8,73l-7.5-13.3l-4.8-8L21.4,32.5L0,0.8l0.6-0.6l17.5,13.2L29.3,22l24,20.1l23.2,20.7l16.8,15.3l26.4,26.4l9.7,10.4  l16.8,20l8,11.2l3,4.5l3,4.5v1.2l-8.4-7.9l-13-9.8L118.5,125l-10.8-5.4l-12.3-4.9l-2.9-0.5l-2.9-0.5v0.9l4.1,9.2l4.7,12.8l1.2,6.7  l1.2,6.7l0,13l-2.4,14.8l-4.7,11.7l-8.1,14l-6.8,8.3l-8.7,9l0.9,1.5l14.1,8.6l12.8,9.9l12.1,11l15.7,17.1l8.7,10.9l11.8,16.8  l11,17.6l9.4,16.8l6.1,11.2l2.7,5.2h13.1l10.8-19.6l14.4-24l7.9-12l9.7-13.6l14.6-17.6l15.9-16.1l13.6-10.8l18.4-12.3l0.4-0.2  l-10.2-10.5l-10-14.6l-6.4-13.6l-2-8.1l-2-8.1l-0.1-18.4l2.1-8l2.1-8l7.2-17.5l-0.7-0.7l-7.7,1.9l-11.4,4.7l-11.8,6.6l-8.8,5.7  l-20.8,15.1l-9.2,9V155l12-17.8l21.1-25.5l40.1-39.8l18.3-16.2l22.5-19.8l25.8-21l9.4-7.3L364.9,0v0.8l-27.6,41.4L329,55.7l-10,17.6  l-6.2,12l-7.3,16l-4.6,12l-2.7,8l-2.7,8l-1.3,4.5l-1.3,4.5l-1.2,7.9l-1.2,7.9l0,5.9l0,5.9l1.8,10.5l5.4,11.8l3.5,4.9l3.5,4.9  l13.4,13l23.7,15.6l-0.4,0.4l-0.4,0.4l-18.9,6.3l-14.2,7.2l-10.2,6.2l-12.5,9.3l-16.6,16l-13.1,16l-11.9,16l-9,14.4l-11.4,20  l-15.7,32l-3.7,8.8l-3.7,8.8l-5.5,14.4l-6.4,19.2l-3.4,11.6H182L180.8,432.7L180.8,432.7z M141.5,251.3l-3-0.7l-7.8-3.9l-13-12.3  l-9.7-12.8l0.4-0.4l0.4-0.4l9.3,2l13.4,7l9.3,6.3l4.9,6l1.3,4l1.3,4l0.4,1l0.4,1l-4.6-0.2L141.5,251.3z M217.3,249.5l0.5-2.6  l0.7-2.9l0.7-2.9l7.6-7.1l10.3-6l10.5-4.9l8.7-3l0.3,0.3l0.3,0.3l-12.7,16.8l-8.8,8l-7.4,4.2l-8.1,2.4h-3L217.3,249.5z" />
</svg>